<svg xmlns="http://www.w3.org/2000/svg" width="1440" height="900" viewBox="0 0 1440 900" role="img" aria-label="苏超多路直播墙界面预览">
  <defs>
    <linearGradient id="bg" x1="0" y1="0" x2="1" y2="1">
      <stop offset="0" stop-color="#06100b"/>
      <stop offset="0.48" stop-color="#0a1812"/>
      <stop offset="1" stop-color="#111413"/>
    </linearGradient>
    <linearGradient id="field" x1="0" y1="0" x2="1" y2="1">
      <stop offset="0" stop-color="#1f6b3e"/>
      <stop offset="1" stop-color="#114c31"/>
    </linearGradient>
    <filter id="shadow" x="-20%" y="-20%" width="140%" height="140%">
      <feDropShadow dx="0" dy="18" stdDeviation="22" flood-color="#000" flood-opacity="0.35"/>
    </filter>
  </defs>

  <rect width="1440" height="900" fill="url(#bg)"/>
  <circle cx="160" cy="40" r="360" fill="#f2c14e" opacity="0.12"/>

  <rect x="0" y="0" width="1440" height="88" fill="#07110c" opacity="0.94"/>
  <line x1="0" y1="88" x2="1440" y2="88" stroke="#ffffff" opacity="0.14"/>
  <text x="34" y="53" fill="#f6f8f3" font-family="Arial,'Microsoft YaHei',sans-serif" font-size="28" font-weight="700">苏超多路直播墙</text>
  <text x="278" y="53" fill="#9aa89d" font-family="Arial,'Microsoft YaHei',sans-serif" font-size="17">当前轮次 200，6 场完整显示</text>

  <rect x="786" y="22" width="142" height="44" rx="7" fill="#0b100d" stroke="#ffffff" opacity="0.95"/>
  <text x="806" y="50" fill="#9aa89d" font-family="Arial,'Microsoft YaHei',sans-serif" font-size="15">起始</text>
  <text x="858" y="50" fill="#f6f8f3" font-family="Arial,'Microsoft YaHei',sans-serif" font-size="15">41</text>

  <rect x="942" y="22" width="90" height="44" rx="7" fill="#0b100d" stroke="#ffffff" opacity="0.95"/>
  <text x="962" y="50" fill="#9aa89d" font-family="Arial,'Microsoft YaHei',sans-serif" font-size="15">场数</text>
  <text x="1006" y="50" fill="#f6f8f3" font-family="Arial,'Microsoft YaHei',sans-serif" font-size="15">6</text>

  <rect x="1018" y="22" width="106" height="44" rx="7" fill="#0b100d" stroke="#ffffff" opacity="0.95"/>
  <text x="1038" y="50" fill="#9aa89d" font-family="Arial,'Microsoft YaHei',sans-serif" font-size="15">轮次</text>
  <text x="1082" y="50" fill="#f6f8f3" font-family="Arial,'Microsoft YaHei',sans-serif" font-size="15">200</text>

  <rect x="1138" y="22" width="76" height="44" rx="7" fill="#f2c14e"/>
  <text x="1160" y="50" fill="#1d1300" font-family="Arial,'Microsoft YaHei',sans-serif" font-size="16" font-weight="700">应用</text>
  <rect x="1226" y="22" width="96" height="44" rx="7" fill="#d73f31"/>
  <text x="1244" y="50" fill="#fff" font-family="Arial,'Microsoft YaHei',sans-serif" font-size="16">自动网格</text>
  <rect x="1334" y="22" width="72" height="44" rx="7" fill="#17231d" stroke="#ffffff" opacity="0.95"/>
  <text x="1354" y="50" fill="#fff" font-family="Arial,'Microsoft YaHei',sans-serif" font-size="16">纵向</text>

  <g filter="url(#shadow)">
    <g transform="translate(28 118)">
      <rect width="432" height="228" rx="8" fill="#050806" stroke="#f2c14e"/>
      <rect width="432" height="48" rx="8" fill="#17231d"/>
      <circle cx="24" cy="24" r="12" fill="#f2c14e"/>
      <text x="20" y="29" fill="#1d1300" font-family="Arial" font-size="14" font-weight="700">1</text>
      <text x="50" y="30" fill="#f6f8f3" font-family="Arial,'Microsoft YaHei',sans-serif" font-size="17" font-weight="700">主直播</text>
      <rect x="0" y="48" width="432" height="180" fill="url(#field)"/>
      <line x1="216" y1="48" x2="216" y2="228" stroke="#ffffff" opacity="0.35"/>
      <circle cx="216" cy="138" r="42" fill="none" stroke="#ffffff" opacity="0.35"/>
      <rect x="16" y="62" width="400" height="152" rx="4" fill="#000" opacity="0.12"/>
      <text x="22" y="208" fill="#fff" font-family="Arial,'Microsoft YaHei',sans-serif" font-size="13">完整显示直播画面</text>
    </g>
    <g transform="translate(504 118)">
      <rect width="432" height="228" rx="8" fill="#050806" stroke="#ffffff" opacity="0.88"/>
      <rect width="432" height="48" rx="8" fill="#17231d"/>
      <circle cx="24" cy="24" r="12" fill="#f2c14e"/>
      <text x="20" y="29" fill="#1d1300" font-family="Arial" font-size="14" font-weight="700">2</text>
      <text x="50" y="30" fill="#f6f8f3" font-family="Arial,'Microsoft YaHei',sans-serif" font-size="17" font-weight="700">第 2 路</text>
      <rect x="0" y="48" width="432" height="180" fill="url(#field)"/>
      <line x1="216" y1="48" x2="216" y2="228" stroke="#ffffff" opacity="0.35"/>
      <circle cx="216" cy="138" r="42" fill="none" stroke="#ffffff" opacity="0.35"/>
    </g>
    <g transform="translate(980 118)">
      <rect width="432" height="228" rx="8" fill="#050806" stroke="#ffffff" opacity="0.88"/>
      <rect width="432" height="48" rx="8" fill="#17231d"/>
      <circle cx="24" cy="24" r="12" fill="#f2c14e"/>
      <text x="20" y="29" fill="#1d1300" font-family="Arial" font-size="14" font-weight="700">3</text>
      <text x="50" y="30" fill="#f6f8f3" font-family="Arial,'Microsoft YaHei',sans-serif" font-size="17" font-weight="700">第 3 路</text>
      <rect x="0" y="48" width="432" height="180" fill="url(#field)"/>
      <line x1="216" y1="48" x2="216" y2="228" stroke="#ffffff" opacity="0.35"/>
      <circle cx="216" cy="138" r="42" fill="none" stroke="#ffffff" opacity="0.35"/>
    </g>
    <g transform="translate(28 386)">
      <rect width="432" height="228" rx="8" fill="#050806" stroke="#ffffff" opacity="0.88"/>
      <rect width="432" height="48" rx="8" fill="#17231d"/>
      <circle cx="24" cy="24" r="12" fill="#f2c14e"/>
      <text x="20" y="29" fill="#1d1300" font-family="Arial" font-size="14" font-weight="700">4</text>
      <text x="50" y="30" fill="#f6f8f3" font-family="Arial,'Microsoft YaHei',sans-serif" font-size="17" font-weight="700">第 4 路</text>
      <rect x="0" y="48" width="432" height="180" fill="url(#field)"/>
      <line x1="216" y1="48" x2="216" y2="228" stroke="#ffffff" opacity="0.35"/>
      <circle cx="216" cy="138" r="42" fill="none" stroke="#ffffff" opacity="0.35"/>
    </g>
    <g transform="translate(504 386)">
      <rect width="432" height="228" rx="8" fill="#050806" stroke="#ffffff" opacity="0.88"/>
      <rect width="432" height="48" rx="8" fill="#17231d"/>
      <circle cx="24" cy="24" r="12" fill="#f2c14e"/>
      <text x="20" y="29" fill="#1d1300" font-family="Arial" font-size="14" font-weight="700">5</text>
      <text x="50" y="30" fill="#f6f8f3" font-family="Arial,'Microsoft YaHei',sans-serif" font-size="17" font-weight="700">第 5 路</text>
      <rect x="0" y="48" width="432" height="180" fill="url(#field)"/>
      <line x1="216" y1="48" x2="216" y2="228" stroke="#ffffff" opacity="0.35"/>
      <circle cx="216" cy="138" r="42" fill="none" stroke="#ffffff" opacity="0.35"/>
    </g>
    <g transform="translate(980 386)">
      <rect width="432" height="228" rx="8" fill="#050806" stroke="#ffffff" opacity="0.88"/>
      <rect width="432" height="48" rx="8" fill="#17231d"/>
      <circle cx="24" cy="24" r="12" fill="#f2c14e"/>
      <text x="20" y="29" fill="#1d1300" font-family="Arial" font-size="14" font-weight="700">6</text>
      <text x="50" y="30" fill="#f6f8f3" font-family="Arial,'Microsoft YaHei',sans-serif" font-size="17" font-weight="700">第 6 路</text>
      <rect x="0" y="48" width="432" height="180" fill="url(#field)"/>
      <line x1="216" y1="48" x2="216" y2="228" stroke="#ffffff" opacity="0.35"/>
      <circle cx="216" cy="138" r="42" fill="none" stroke="#ffffff" opacity="0.35"/>
    </g>
  </g>

  <text x="34" y="704" fill="#f6f8f3" font-family="Arial,'Microsoft YaHei',sans-serif" font-size="34" font-weight="800">一页看全苏超多场直播</text>
  <text x="34" y="748" fill="#9aa89d" font-family="Arial,'Microsoft YaHei',sans-serif" font-size="22">输入起始场次，选择 1 / 2 / 3 / 4 / 6 场，自动排版，完整显示与区域填满一键切换。</text>
  <rect x="34" y="790" width="210" height="52" rx="9" fill="#f2c14e"/>
  <text x="68" y="824" fill="#1d1300" font-family="Arial,'Microsoft YaHei',sans-serif" font-size="20" font-weight="800">打开即用</text>
  <rect x="264" y="790" width="242" height="52" rx="9" fill="#17231d" stroke="#ffffff" opacity="0.95"/>
  <text x="296" y="824" fill="#fff" font-family="Arial,'Microsoft YaHei',sans-serif" font-size="20">支持 GitHub Pages</text>
</svg>
