<?xml version="1.0" encoding="UTF-8"?>
<svg xmlns="http://www.w3.org/2000/svg" width="900" height="1200" viewBox="0 0 900 1200">
  <defs>
    <linearGradient id="bg" x1="0" y1="0" x2="1" y2="1">
      <stop offset="0" stop-color="#07130d"/>
      <stop offset=".48" stop-color="#10261b"/>
      <stop offset="1" stop-color="#050807"/>
    </linearGradient>
    <radialGradient id="light" cx="50%" cy="4%" r="62%">
      <stop offset="0" stop-color="rgba(242,193,78,.42)"/>
      <stop offset=".42" stop-color="rgba(66,214,146,.12)"/>
      <stop offset="1" stop-color="rgba(0,0,0,0)"/>
    </radialGradient>
    <linearGradient id="pitch1" x1="0" y1="0" x2="1" y2="1">
      <stop offset="0" stop-color="#1b8f58"/><stop offset="1" stop-color="#0a4d33"/>
    </linearGradient>
    <linearGradient id="pitch2" x1="0" y1="0" x2="1" y2="1">
      <stop offset="0" stop-color="#28a66a"/><stop offset="1" stop-color="#0d5836"/>
    </linearGradient>
    <linearGradient id="pitch3" x1="0" y1="0" x2="1" y2="1">
      <stop offset="0" stop-color="#34bc76"/><stop offset="1" stop-color="#12613d"/>
    </linearGradient>
    <filter id="shadow" x="-20%" y="-20%" width="140%" height="140%">
      <feDropShadow dx="0" dy="22" stdDeviation="20" flood-color="#000" flood-opacity=".45"/>
    </filter>
  </defs>

  <rect width="900" height="1200" fill="url(#bg)"/>
  <rect width="900" height="1200" fill="url(#light)"/>
  <g opacity=".12" stroke="#fff" stroke-width="1">
    <path d="M-40 1030 C 190 920, 710 920, 940 1030" fill="none"/>
    <path d="M-60 1095 C 180 980, 720 980, 960 1095" fill="none"/>
    <path d="M80 0 L-120 1200 M250 0 L140 1200 M650 0 L760 1200 M820 0 L1020 1200"/>
  </g>

  <g transform="translate(58 54)">
    <rect width="138" height="42" rx="21" fill="#f2c14e"/>
    <text x="69" y="29" text-anchor="middle" font-size="21" font-weight="900" fill="#1c1300">封面 3/8</text>
  </g>

  <text x="58" y="182" font-size="82" font-weight="950" fill="#fff" font-family="Arial, 'Microsoft YaHei', sans-serif">30秒学会</text>
  <text x="58" y="278" font-size="86" font-weight="950" fill="#f2c14e" font-family="Arial, 'Microsoft YaHei', sans-serif">苏超直播墙</text>
  <text x="62" y="336" font-size="31" font-weight="800" fill="#d9e9de" font-family="Arial, 'Microsoft YaHei', sans-serif">打开网页 选3场 点应用</text>

  <g transform="translate(70 390)" filter="url(#shadow)">
    <rect x="0" y="0" width="760" height="420" rx="28" fill="#0a100d" stroke="rgba(242,193,78,.62)" stroke-width="4"/>
    <rect x="24" y="26" width="712" height="52" rx="14" fill="#121f18"/>
    <text x="48" y="61" font-size="25" font-weight="900" fill="#fff" font-family="Arial, 'Microsoft YaHei', sans-serif">苏超多路直播墙</text>
    <text x="662" y="61" text-anchor="end" font-size="20" font-weight="800" fill="#f2c14e" font-family="Arial, 'Microsoft YaHei', sans-serif">3场同看</text>
    
    <g transform="translate(24 102)">
      <rect width="224" height="134" rx="16" fill="#07120d" stroke="rgba(255,255,255,.24)" stroke-width="2"/>
      <rect x="10" y="10" width="204" height="82" rx="12" fill="url(#pitch1)"/>
      <path d="M28 56 C 78.39999999999999 8, 145.6 96, 198 50" fill="none" stroke="rgba(255,255,255,.75)" stroke-width="4"/>
      <circle cx="116.48" cy="57.62" r="28" fill="none" stroke="rgba(255,255,255,.45)" stroke-width="3"/>
      <rect x="10" y="86" width="204" height="38" rx="10" fill="rgba(0,0,0,.62)"/>
      <circle cx="32" cy="105" r="7" fill="#42d692"/>
      <text x="48" y="112" font-size="18" font-weight="800" fill="#fff">扬州 vs 镇江</text>
    </g>
    
    <g transform="translate(268 102)">
      <rect width="224" height="134" rx="16" fill="#07120d" stroke="rgba(255,255,255,.24)" stroke-width="2"/>
      <rect x="10" y="10" width="204" height="82" rx="12" fill="url(#pitch2)"/>
      <path d="M28 56 C 78.39999999999999 8, 145.6 96, 198 50" fill="none" stroke="rgba(255,255,255,.75)" stroke-width="4"/>
      <circle cx="116.48" cy="57.62" r="28" fill="none" stroke="rgba(255,255,255,.45)" stroke-width="3"/>
      <rect x="10" y="86" width="204" height="38" rx="10" fill="rgba(0,0,0,.62)"/>
      <circle cx="32" cy="105" r="7" fill="#42d692"/>
      <text x="48" y="112" font-size="18" font-weight="800" fill="#fff">苏州 vs 连云港</text>
    </g>
    
    <g transform="translate(512 102)">
      <rect width="224" height="134" rx="16" fill="#07120d" stroke="rgba(255,255,255,.24)" stroke-width="2"/>
      <rect x="10" y="10" width="204" height="82" rx="12" fill="url(#pitch3)"/>
      <path d="M28 56 C 78.39999999999999 8, 145.6 96, 198 50" fill="none" stroke="rgba(255,255,255,.75)" stroke-width="4"/>
      <circle cx="116.48" cy="57.62" r="28" fill="none" stroke="rgba(255,255,255,.45)" stroke-width="3"/>
      <rect x="10" y="86" width="204" height="38" rx="10" fill="rgba(0,0,0,.62)"/>
      <circle cx="32" cy="105" r="7" fill="#42d692"/>
      <text x="48" y="112" font-size="18" font-weight="800" fill="#fff">常州 vs 淮安</text>
    </g>
    <rect x="154" y="292" width="452" height="82" rx="20" fill="rgba(242,193,78,.96)"/>
    <text x="380" y="344" text-anchor="middle" font-size="32" font-weight="950" fill="#1e1300" font-family="Arial, 'Microsoft YaHei', sans-serif">一个页面 同时看多场</text>
  </g>

  <g transform="translate(92 852)">
    <rect width="716" height="210" rx="28" fill="rgba(6,14,10,.82)" stroke="rgba(255,255,255,.2)" stroke-width="2"/>
    <text x="358" y="48" text-anchor="middle" font-size="31" font-weight="950" fill="#fff" font-family="Arial, 'Microsoft YaHei', sans-serif">5月16日三场</text>
    <g font-family="Arial, 'Microsoft YaHei', sans-serif" font-size="31" font-weight="900" fill="#f6f8f3">
      <text x="86" y="100">扬州vs镇江</text>
      <text x="86" y="145">苏州vs连云港</text>
      <text x="86" y="190">常州vs淮安</text>
    </g>
    <g transform="translate(492 80)">
      <rect width="142" height="64" rx="18" fill="#d73f31"/>
      <text x="71" y="41" text-anchor="middle" font-size="25" font-weight="950" fill="#fff" font-family="Arial, 'Microsoft YaHei', sans-serif">收藏</text>
    </g>
  </g>

  <text x="450" y="1138" text-anchor="middle" font-size="25" font-weight="800" fill="#9edbbd" font-family="Arial, 'Microsoft YaHei', sans-serif">电脑大屏 · 手机都能用 · 无需安装</text>
</svg>